<svg xmlns="http://www.w3.org/2000/svg" version="1.1" xmlns:xlink="http://www.w3.org/1999/xlink" xmlns:svgjs="http://svgjs.com/svgjs" width="1000" height="1000"><rect width="1000" height="1000" rx="200" ry="200" fill="#ffffff"></rect><g transform="matrix(33.333333333333336,0,0,33.333333333333336,100,100)"><svg xmlns="http://www.w3.org/2000/svg" version="1.1" xmlns:xlink="http://www.w3.org/1999/xlink" xmlns:svgjs="http://svgjs.com/svgjs" width="24" height="24"><svg fill="none" height="24" stroke-width="1.5" viewBox="0 0 24 24" width="24" xmlns="http://www.w3.org/2000/svg"><path d="M18.5 9L15.5 15L12.5 9" stroke="currentColor" stroke-linecap="round" stroke-linejoin="round"></path><path d="M10 9H6L6 15L10 15" stroke="currentColor" stroke-linecap="round" stroke-linejoin="round"></path><path d="M6 12H9" stroke="currentColor" stroke-linecap="round" stroke-linejoin="round"></path><path d="M2 15V9C2 5.68629 4.68629 3 8 3H16C19.3137 3 22 5.68629 22 9V15C22 18.3137 19.3137 21 16 21H8C4.68629 21 2 18.3137 2 15Z" stroke="currentColor" stroke-width="1.5"></path></svg></svg></g></svg>